# xmcd
#
# Track frame offsets:
#	150
#	25379
#	55145
#	77641
#	92874
#	131001
#	165309
#	190399
#	211552
#	238306
#	273584
#	290202
#	311759
#
# Disc length: 4651 seconds
# Revision: 0
# Processed by: cddbd v1.5.2PL0 Copyright (c) Steve Scherf et al.
# Submitted via: dBpowerAMP V12.0
#
DISCID=be12290d
DTITLE=Haruki Murakami - Die Pilgerjahre des farblosen Herrn Tazaki CD3
DYEAR=2014
DGENRE=Hörbuch
TTITLE0=029
TTITLE1=030
TTITLE2=031
TTITLE3=032
TTITLE4=033
TTITLE5=034
TTITLE6=035
TTITLE7=036
TTITLE8=037
TTITLE9=038
TTITLE10=039
TTITLE11=040
TTITLE12=041
EXTD=
EXTT0=
EXTT1=
EXTT2=
EXTT3=
EXTT4=
EXTT5=
EXTT6=
EXTT7=
EXTT8=
EXTT9=
EXTT10=
EXTT11=
EXTT12=
PLAYORDER=
